<svg width="51" height="51" viewBox="0 0 51 51" fill="none" xmlns="http://www.w3.org/2000/svg">
<path fill-rule="evenodd" clip-rule="evenodd" d="M25.5 0.916626C11.93 0.916626 0.916626 11.93 0.916626 25.5C0.916626 39.07 11.93 50.0833 25.5 50.0833C39.07 50.0833 50.0833 39.07 50.0833 25.5C50.0833 11.93 39.07 0.916626 25.5 0.916626ZM25.5 45.1666C14.6587 45.1666 5.83329 36.3412 5.83329 25.5C5.83329 14.6587 14.6587 5.83329 25.5 5.83329C36.3412 5.83329 45.1666 14.6587 45.1666 25.5C45.1666 36.3412 36.3412 45.1666 25.5 45.1666ZM20.5833 30.8347L36.7837 14.6342L40.25 18.1251L20.5833 37.7917L10.75 27.9584L14.2162 24.4922L20.5833 30.8347Z" fill="#219653"/>
</svg>
